solid Base
   facet normal 0.000000e+00 1.000000e+00 0.000000e+00
      outer loop
         vertex 4.625984e+00 1.614173e+00 9.842510e-02
         vertex 4.724409e+00 1.614173e+00 0.000000e+00
         vertex 9.842510e-02 1.614173e+00 9.842510e-02
      endloop
   endfacet
   facet normal 0.000000e+00 1.000000e+00 0.000000e+00
      outer loop
         vertex 9.842510e-02 1.614173e+00 9.842510e-02
         vertex 4.724409e+00 1.614173e+00 0.000000e+00
         vertex 0.000000e+00 1.614173e+00 0.000000e+00
      endloop
   endfacet
   facet normal 0.000000e+00 1.000000e+00 -0.000000e+00
      outer loop
         vertex 9.842510e-02 1.614173e+00 9.842510e-02
         vertex 0.000000e+00 1.614173e+00 0.000000e+00
         vertex 9.842510e-02 1.614173e+00 4.625984e+00
      endloop
   endfacet
   facet normal 0.000000e+00 1.000000e+00 0.000000e+00
      outer loop
         vertex 9.842510e-02 1.614173e+00 4.625984e+00
         vertex 0.000000e+00 1.614173e+00 0.000000e+00
         vertex 0.000000e+00 1.614173e+00 4.724409e+00
      endloop
   endfacet
   facet normal 0.000000e+00 1.000000e+00 -0.000000e+00
      outer loop
         vertex 9.842510e-02 1.614173e+00 4.625984e+00
         vertex 0.000000e+00 1.614173e+00 4.724409e+00
         vertex 4.625984e+00 1.614173e+00 4.625984e+00
      endloop
   endfacet
   facet normal 0.000000e+00 1.000000e+00 -0.000000e+00
      outer loop
         vertex 4.625984e+00 1.614173e+00 4.625984e+00
         vertex 0.000000e+00 1.614173e+00 4.724409e+00
         vertex 4.724409e+00 1.614173e+00 4.724409e+00
      endloop
   endfacet
   facet normal -0.000000e+00 1.000000e+00 0.000000e+00
      outer loop
         vertex 4.625984e+00 1.614173e+00 4.625984e+00
         vertex 4.724409e+00 1.614173e+00 4.724409e+00
         vertex 4.625984e+00 1.614173e+00 9.842510e-02
      endloop
   endfacet
   facet normal -0.000000e+00 1.000000e+00 0.000000e+00
      outer loop
         vertex 4.625984e+00 1.614173e+00 9.842510e-02
         vertex 4.724409e+00 1.614173e+00 4.724409e+00
         vertex 4.724409e+00 1.614173e+00 0.000000e+00
      endloop
   endfacet
   facet normal 1.000000e+00 0.000000e+00 -8.743876e-33
      outer loop
         vertex 4.724409e+00 1.614173e+00 0.000000e+00
         vertex 4.724409e+00 1.614173e+00 4.724409e+00
         vertex 4.724409e+00 0.000000e+00 0.000000e+00
      endloop
   endfacet
   facet normal 1.000000e+00 0.000000e+00 -8.743876e-33
      outer loop
         vertex 4.724409e+00 0.000000e+00 0.000000e+00
         vertex 4.724409e+00 1.614173e+00 4.724409e+00
         vertex 4.724409e+00 0.000000e+00 4.724409e+00
      endloop
   endfacet
   facet normal 0.000000e+00 0.000000e+00 -1.000000e+00
      outer loop
         vertex 0.000000e+00 1.614173e+00 0.000000e+00
         vertex 4.724409e+00 1.614173e+00 0.000000e+00
         vertex 0.000000e+00 0.000000e+00 0.000000e+00
      endloop
   endfacet
   facet normal 0.000000e+00 0.000000e+00 -1.000000e+00
      outer loop
         vertex 0.000000e+00 0.000000e+00 0.000000e+00
         vertex 4.724409e+00 1.614173e+00 0.000000e+00
         vertex 4.724409e+00 0.000000e+00 0.000000e+00
      endloop
   endfacet
   facet normal -1.000000e+00 -0.000000e+00 -0.000000e+00
      outer loop
         vertex 0.000000e+00 1.614173e+00 4.724409e+00
         vertex 0.000000e+00 1.614173e+00 0.000000e+00
         vertex 0.000000e+00 0.000000e+00 4.724409e+00
      endloop
   endfacet
   facet normal -1.000000e+00 0.000000e+00 0.000000e+00
      outer loop
         vertex 0.000000e+00 0.000000e+00 4.724409e+00
         vertex 0.000000e+00 1.614173e+00 0.000000e+00
         vertex 0.000000e+00 0.000000e+00 0.000000e+00
      endloop
   endfacet
   facet normal 1.224647e-16 -5.228167e-23 1.000000e+00
      outer loop
         vertex 1.181102e+00 7.874016e-01 4.724409e+00
         vertex 4.724409e+00 1.614173e+00 4.724409e+00
         vertex 0.000000e+00 1.614173e+00 4.724409e+00
      endloop
   endfacet
   facet normal 1.224647e-16 0.000000e+00 1.000000e+00
      outer loop
         vertex 4.724409e+00 1.614173e+00 4.724409e+00
         vertex 1.181102e+00 7.874016e-01 4.724409e+00
         vertex 4.724409e+00 0.000000e+00 4.724409e+00
      endloop
   endfacet
   facet normal 1.224647e-16 0.000000e+00 1.000000e+00
      outer loop
         vertex 4.724409e+00 0.000000e+00 4.724409e+00
         vertex 1.181102e+00 7.874016e-01 4.724409e+00
         vertex 1.181102e+00 1.968504e-01 4.724409e+00
      endloop
   endfacet
   facet normal 1.224647e-16 2.195830e-22 1.000000e+00
      outer loop
         vertex 4.724409e+00 0.000000e+00 4.724409e+00
         vertex 1.181102e+00 1.968504e-01 4.724409e+00
         vertex 0.000000e+00 0.000000e+00 4.724409e+00
      endloop
   endfacet
   facet normal 1.224648e-16 -1.824867e-22 1.000000e+00
      outer loop
         vertex 0.000000e+00 0.000000e+00 4.724409e+00
         vertex 1.181102e+00 1.968504e-01 4.724409e+00
         vertex 5.905512e-01 1.968504e-01 4.724409e+00
      endloop
   endfacet
   facet normal 1.224647e-16 -0.000000e+00 1.000000e+00
      outer loop
         vertex 0.000000e+00 0.000000e+00 4.724409e+00
         vertex 5.905512e-01 1.968504e-01 4.724409e+00
         vertex 0.000000e+00 1.614173e+00 4.724409e+00
      endloop
   endfacet
   facet normal 1.224647e-16 0.000000e+00 1.000000e+00
      outer loop
         vertex 0.000000e+00 1.614173e+00 4.724409e+00
         vertex 5.905512e-01 1.968504e-01 4.724409e+00
         vertex 5.905512e-01 7.874016e-01 4.724409e+00
      endloop
   endfacet
   facet normal 1.224648e-16 4.344921e-23 1.000000e+00
      outer loop
         vertex 0.000000e+00 1.614173e+00 4.724409e+00
         vertex 5.905512e-01 7.874016e-01 4.724409e+00
         vertex 1.181102e+00 7.874016e-01 4.724409e+00
      endloop
   endfacet
   facet normal 0.000000e+00 -1.000000e+00 0.000000e+00
      outer loop
         vertex 0.000000e+00 0.000000e+00 4.724409e+00
         vertex 0.000000e+00 0.000000e+00 0.000000e+00
         vertex 4.724409e+00 0.000000e+00 4.724409e+00
      endloop
   endfacet
   facet normal 0.000000e+00 -1.000000e+00 0.000000e+00
      outer loop
         vertex 4.724409e+00 0.000000e+00 4.724409e+00
         vertex 0.000000e+00 0.000000e+00 0.000000e+00
         vertex 4.724409e+00 0.000000e+00 0.000000e+00
      endloop
   endfacet
   facet normal 0.000000e+00 0.000000e+00 1.000000e+00
      outer loop
         vertex 9.842510e-02 1.220472e+00 9.842510e-02
         vertex 4.625984e+00 1.220472e+00 9.842510e-02
         vertex 9.842510e-02 1.614173e+00 9.842510e-02
      endloop
   endfacet
   facet normal -0.000000e+00 0.000000e+00 1.000000e+00
      outer loop
         vertex 9.842510e-02 1.614173e+00 9.842510e-02
         vertex 4.625984e+00 1.220472e+00 9.842510e-02
         vertex 4.625984e+00 1.614173e+00 9.842510e-02
      endloop
   endfacet
   facet normal -1.000000e+00 0.000000e+00 0.000000e+00
      outer loop
         vertex 4.625984e+00 1.220472e+00 9.842510e-02
         vertex 4.625984e+00 1.220472e+00 4.625984e+00
         vertex 4.625984e+00 1.614173e+00 9.842510e-02
      endloop
   endfacet
   facet normal -1.000000e+00 0.000000e+00 0.000000e+00
      outer loop
         vertex 4.625984e+00 1.614173e+00 9.842510e-02
         vertex 4.625984e+00 1.220472e+00 4.625984e+00
         vertex 4.625984e+00 1.614173e+00 4.625984e+00
      endloop
   endfacet
   facet normal 0.000000e+00 0.000000e+00 -1.000000e+00
      outer loop
         vertex 4.625984e+00 1.220472e+00 4.625984e+00
         vertex 9.842510e-02 1.220472e+00 4.625984e+00
         vertex 4.625984e+00 1.614173e+00 4.625984e+00
      endloop
   endfacet
   facet normal -0.000000e+00 0.000000e+00 -1.000000e+00
      outer loop
         vertex 4.625984e+00 1.614173e+00 4.625984e+00
         vertex 9.842510e-02 1.220472e+00 4.625984e+00
         vertex 9.842510e-02 1.614173e+00 4.625984e+00
      endloop
   endfacet
   facet normal 1.000000e+00 -0.000000e+00 0.000000e+00
      outer loop
         vertex 9.842510e-02 1.220472e+00 4.625984e+00
         vertex 9.842510e-02 1.220472e+00 9.842510e-02
         vertex 9.842510e-02 1.614173e+00 4.625984e+00
      endloop
   endfacet
   facet normal 1.000000e+00 0.000000e+00 0.000000e+00
      outer loop
         vertex 9.842510e-02 1.614173e+00 4.625984e+00
         vertex 9.842510e-02 1.220472e+00 9.842510e-02
         vertex 9.842510e-02 1.614173e+00 9.842510e-02
      endloop
   endfacet
   facet normal 0.000000e+00 1.000000e+00 -0.000000e+00
      outer loop
         vertex 1.968502e-01 1.220472e+00 1.968502e-01
         vertex 9.842510e-02 1.220472e+00 9.842510e-02
         vertex 1.968502e-01 1.220472e+00 4.527559e+00
      endloop
   endfacet
   facet normal 0.000000e+00 1.000000e+00 0.000000e+00
      outer loop
         vertex 1.968502e-01 1.220472e+00 4.527559e+00
         vertex 9.842510e-02 1.220472e+00 9.842510e-02
         vertex 9.842510e-02 1.220472e+00 4.625984e+00
      endloop
   endfacet
   facet normal 0.000000e+00 1.000000e+00 -0.000000e+00
      outer loop
         vertex 1.968502e-01 1.220472e+00 4.527559e+00
         vertex 9.842510e-02 1.220472e+00 4.625984e+00
         vertex 4.527559e+00 1.220472e+00 4.527559e+00
      endloop
   endfacet
   facet normal 0.000000e+00 1.000000e+00 -0.000000e+00
      outer loop
         vertex 4.527559e+00 1.220472e+00 4.527559e+00
         vertex 9.842510e-02 1.220472e+00 4.625984e+00
         vertex 4.625984e+00 1.220472e+00 4.625984e+00
      endloop
   endfacet
   facet normal -0.000000e+00 1.000000e+00 0.000000e+00
      outer loop
         vertex 4.527559e+00 1.220472e+00 4.527559e+00
         vertex 4.625984e+00 1.220472e+00 4.625984e+00
         vertex 4.527559e+00 1.220472e+00 1.968502e-01
      endloop
   endfacet
   facet normal -0.000000e+00 1.000000e+00 0.000000e+00
      outer loop
         vertex 4.527559e+00 1.220472e+00 1.968502e-01
         vertex 4.625984e+00 1.220472e+00 4.625984e+00
         vertex 4.625984e+00 1.220472e+00 9.842510e-02
      endloop
   endfacet
   facet normal 0.000000e+00 1.000000e+00 0.000000e+00
      outer loop
         vertex 4.527559e+00 1.220472e+00 1.968502e-01
         vertex 4.625984e+00 1.220472e+00 9.842510e-02
         vertex 1.968502e-01 1.220472e+00 1.968502e-01
      endloop
   endfacet
   facet normal 0.000000e+00 1.000000e+00 0.000000e+00
      outer loop
         vertex 1.968502e-01 1.220472e+00 1.968502e-01
         vertex 4.625984e+00 1.220472e+00 9.842510e-02
         vertex 9.842510e-02 1.220472e+00 9.842510e-02
      endloop
   endfacet
   facet normal 0.000000e+00 1.000000e+00 0.000000e+00
      outer loop
         vertex 1.968502e-01 1.968504e-01 1.968502e-01
         vertex 1.968502e-01 1.968504e-01 4.527559e+00
         vertex 4.527559e+00 1.968504e-01 1.968502e-01
      endloop
   endfacet
   facet normal 0.000000e+00 1.000000e+00 0.000000e+00
      outer loop
         vertex 4.527559e+00 1.968504e-01 1.968502e-01
         vertex 1.968502e-01 1.968504e-01 4.527559e+00
         vertex 5.905512e-01 1.968504e-01 4.527559e+00
      endloop
   endfacet
   facet normal 0.000000e+00 1.000000e+00 0.000000e+00
      outer loop
         vertex 4.527559e+00 1.968504e-01 4.527559e+00
         vertex 4.527559e+00 1.968504e-01 1.968502e-01
         vertex 1.181102e+00 1.968504e-01 4.527559e+00
      endloop
   endfacet
   facet normal 0.000000e+00 1.000000e+00 0.000000e+00
      outer loop
         vertex 1.181102e+00 1.968504e-01 4.527559e+00
         vertex 4.527559e+00 1.968504e-01 1.968502e-01
         vertex 5.905512e-01 1.968504e-01 4.527559e+00
      endloop
   endfacet
   facet normal 0.000000e+00 1.000000e+00 -0.000000e+00
      outer loop
         vertex 1.181102e+00 1.968504e-01 4.527559e+00
         vertex 5.905512e-01 1.968504e-01 4.527559e+00
         vertex 1.181102e+00 1.968504e-01 4.724409e+00
      endloop
   endfacet
   facet normal 0.000000e+00 1.000000e+00 0.000000e+00
      outer loop
         vertex 1.181102e+00 1.968504e-01 4.724409e+00
         vertex 5.905512e-01 1.968504e-01 4.527559e+00
         vertex 5.905512e-01 1.968504e-01 4.724409e+00
      endloop
   endfacet
   facet normal -1.000000e+00 0.000000e+00 0.000000e+00
      outer loop
         vertex 4.527559e+00 1.968504e-01 1.968502e-01
         vertex 4.527559e+00 1.968504e-01 4.527559e+00
         vertex 4.527559e+00 1.220472e+00 1.968502e-01
      endloop
   endfacet
   facet normal -1.000000e+00 0.000000e+00 0.000000e+00
      outer loop
         vertex 4.527559e+00 1.220472e+00 1.968502e-01
         vertex 4.527559e+00 1.968504e-01 4.527559e+00
         vertex 4.527559e+00 1.220472e+00 4.527559e+00
      endloop
   endfacet
   facet normal 0.000000e+00 0.000000e+00 -1.000000e+00
      outer loop
         vertex 5.905512e-01 1.968504e-01 4.527559e+00
         vertex 1.968502e-01 1.968504e-01 4.527559e+00
         vertex 5.905512e-01 7.874016e-01 4.527559e+00
      endloop
   endfacet
   facet normal -0.000000e+00 0.000000e+00 -1.000000e+00
      outer loop
         vertex 5.905512e-01 7.874016e-01 4.527559e+00
         vertex 1.968502e-01 1.968504e-01 4.527559e+00
         vertex 1.968502e-01 1.220472e+00 4.527559e+00
      endloop
   endfacet
   facet normal 0.000000e+00 0.000000e+00 -1.000000e+00
      outer loop
         vertex 5.905512e-01 7.874016e-01 4.527559e+00
         vertex 1.968502e-01 1.220472e+00 4.527559e+00
         vertex 1.181102e+00 7.874016e-01 4.527559e+00
      endloop
   endfacet
   facet normal 0.000000e+00 0.000000e+00 -1.000000e+00
      outer loop
         vertex 1.181102e+00 7.874016e-01 4.527559e+00
         vertex 1.968502e-01 1.220472e+00 4.527559e+00
         vertex 4.527559e+00 1.220472e+00 4.527559e+00
      endloop
   endfacet
   facet normal 0.000000e+00 0.000000e+00 -1.000000e+00
      outer loop
         vertex 1.181102e+00 7.874016e-01 4.527559e+00
         vertex 4.527559e+00 1.220472e+00 4.527559e+00
         vertex 1.181102e+00 1.968504e-01 4.527559e+00
      endloop
   endfacet
   facet normal 0.000000e+00 0.000000e+00 -1.000000e+00
      outer loop
         vertex 1.181102e+00 1.968504e-01 4.527559e+00
         vertex 4.527559e+00 1.220472e+00 4.527559e+00
         vertex 4.527559e+00 1.968504e-01 4.527559e+00
      endloop
   endfacet
   facet normal 1.000000e+00 -0.000000e+00 0.000000e+00
      outer loop
         vertex 1.968502e-01 1.968504e-01 4.527559e+00
         vertex 1.968502e-01 1.968504e-01 1.968502e-01
         vertex 1.968502e-01 1.220472e+00 4.527559e+00
      endloop
   endfacet
   facet normal 1.000000e+00 0.000000e+00 0.000000e+00
      outer loop
         vertex 1.968502e-01 1.220472e+00 4.527559e+00
         vertex 1.968502e-01 1.968504e-01 1.968502e-01
         vertex 1.968502e-01 1.220472e+00 1.968502e-01
      endloop
   endfacet
   facet normal 0.000000e+00 0.000000e+00 1.000000e+00
      outer loop
         vertex 1.968502e-01 1.968504e-01 1.968502e-01
         vertex 4.527559e+00 1.968504e-01 1.968502e-01
         vertex 1.968502e-01 1.220472e+00 1.968502e-01
      endloop
   endfacet
   facet normal -0.000000e+00 0.000000e+00 1.000000e+00
      outer loop
         vertex 1.968502e-01 1.220472e+00 1.968502e-01
         vertex 4.527559e+00 1.968504e-01 1.968502e-01
         vertex 4.527559e+00 1.220472e+00 1.968502e-01
      endloop
   endfacet
   facet normal 1.000000e+00 0.000000e+00 0.000000e+00
      outer loop
         vertex 5.905512e-01 7.874016e-01 4.724409e+00
         vertex 5.905512e-01 1.968504e-01 4.724409e+00
         vertex 5.905512e-01 7.874016e-01 4.527559e+00
      endloop
   endfacet
   facet normal 1.000000e+00 0.000000e+00 0.000000e+00
      outer loop
         vertex 5.905512e-01 7.874016e-01 4.527559e+00
         vertex 5.905512e-01 1.968504e-01 4.724409e+00
         vertex 5.905512e-01 1.968504e-01 4.527559e+00
      endloop
   endfacet
   facet normal -0.000000e+00 -1.000000e+00 -0.000000e+00
      outer loop
         vertex 1.181102e+00 7.874016e-01 4.724409e+00
         vertex 5.905512e-01 7.874016e-01 4.724409e+00
         vertex 1.181102e+00 7.874016e-01 4.527559e+00
      endloop
   endfacet
   facet normal 0.000000e+00 -1.000000e+00 0.000000e+00
      outer loop
         vertex 1.181102e+00 7.874016e-01 4.527559e+00
         vertex 5.905512e-01 7.874016e-01 4.724409e+00
         vertex 5.905512e-01 7.874016e-01 4.527559e+00
      endloop
   endfacet
   facet normal -1.000000e+00 0.000000e+00 0.000000e+00
      outer loop
         vertex 1.181102e+00 1.968504e-01 4.724409e+00
         vertex 1.181102e+00 7.874016e-01 4.724409e+00
         vertex 1.181102e+00 1.968504e-01 4.527559e+00
      endloop
   endfacet
   facet normal -1.000000e+00 0.000000e+00 0.000000e+00
      outer loop
         vertex 1.181102e+00 1.968504e-01 4.527559e+00
         vertex 1.181102e+00 7.874016e-01 4.724409e+00
         vertex 1.181102e+00 7.874016e-01 4.527559e+00
      endloop
   endfacet
endsolid